<?xml version="1.0" encoding="utf-8"?>
<!-- Generator: Adobe Illustrator 27.2.0, SVG Export Plug-In . SVG Version: 6.00 Build 0)  -->
<svg version="1.1" id="Layer_1" xmlns="http://www.w3.org/2000/svg" xmlns:xlink="http://www.w3.org/1999/xlink" x="0px" y="0px"
	 viewBox="0 0 512 512" style="enable-background:new 0 0 512 512;" xml:space="preserve">
<style type="text/css">
	.st0{fill:#7400F2;}
</style>
<g>
	<polygon class="st0" points="253,46.64 293.96,129.63 385.54,142.94 319.27,207.53 334.91,298.74 253,255.68 171.09,298.74 
		186.73,207.53 120.46,142.94 212.04,129.63 	"/>
</g>
<g>
	<polygon points="147.12,389.11 146.39,388.09 144.64,388.09 142.82,388.31 141.8,387.8 140.05,388.09 139.9,387.58 136.77,388.31 
		135.31,388.31 132.03,389.18 131.01,390.2 130.5,392.53 130.5,393.92 131.67,395.3 131.67,395.45 133.49,396.25 134.88,396.76 
		136.84,396.76 138.96,396.61 141.58,396.25 142.53,395.74 143.77,395.45 144.86,394.94 146.54,394.65 147.19,393.92 147.19,393.48 
		146.68,391.66 	"/>
	<path d="M207.24,405.07v-1.68l-0.58-2.4l0.51-2.7v-5.32l0.15-0.58l-0.58-2.33l0.44-3.28v-3.06l-0.29-2.4l0.95-5.32l-0.51-1.53
		l-0.29-2.26l0.44-2.26l-0.44-1.68l0.22-1.68l-0.44-5.83l0.36-0.44l0.07-0.29l-0.73-3.13l0.58-3.21v-0.95l0.36-2.33l-0.51-2.99
		l0.22-2.19l-0.07-0.95l0.22-2.4l-0.51-2.26l0.36-2.4l-1.46-0.88h-3.43l-4.3-0.29l-2.48,0.44h-4.74l-3.13-0.29l-2.26,0.22h-2.11
		l-3.86-0.36l-2.48,0.58l-0.95-0.36l-1.75,0.22h0.07l-1.6,0.15l-1.75-0.51l-1.53,0.22l-3.86-0.87l-1.53,0.73l-1.68-0.22l-0.38,0.36
		h-5.67l-3.28-0.22l-1.17,0.37l-2.92-0.22h-9.11l-3.06-0.22l-0.8,0.07l-2.19,0.51l-3.86-0.36l-3.06-0.44l-0.8,0.44l-2.84-0.58
		l-2.33,0.44l-2.04-0.22l-1.18,0.9l-0.28-0.09h-9.4l-0.87,0.15h-6.49l-4.66,0.29l-4.88-0.58l-1.09,0.51h-2.33l-2.11,0.29l-2.26-0.51
		l-3.13,0.58l-2.26-0.51l-0.8,0.36l-1.7-0.24l-0.2-0.2l0.22-0.51h-4.96l-3.5-0.22l-3.21,0.37H52.08l-0.95-0.22l-3.21-0.37
		l-1.53,0.51l-2.11-0.15l-2.62,0.22l-2.04-0.44l-1.17,0.29l-3.79-0.87l-3.57,0.73l-1.46,0.44v4.52l-0.36,4.15l0.51,1.75l-0.29,1.68
		l0.36,2.92v5.61l-0.44,4.15l0.15,1.53v2.99l-0.22,1.02l0.36,2.84v3.06l0.29,3.57l-0.36,2.19l0.36,2.4l-1.02,3.64l0.15,0.36
		l0.36,0.29v1.6l0.36,1.68l-0.66,3.64l0.58,2.19l-0.36,0.8l-0.58,3.28l1.09,2.77v2.55l-0.51,0.73l-0.15,2.41v4.96l0.44,4.52
		l-0.15,1.46l1.46,1.31l2.04-0.29l1.97,0.22h2.62l1.68,0.15l2.55-0.51l4.52,0.44l1.46-0.15h1.97l2.26,0.22h2.55l3.94-0.44l0.44,0.29
		l1.89,0.44l3.64-0.51l0.58,0.07l3.13-0.58l2.99,0.44l2.04-0.15l0.72-0.14l0.01,0.14l1.31,1.38l1.6-0.22h4.88l1.97,0.15l3.43-0.66
		l1.68,0.44h1.97l2.48-0.22h2.92l2.19,0.15l3.35-0.44l3.86,0.87l2.92-0.8l2.19-0.15l1.24-0.29h5.78l0.05,0.07l0.3-0.04l0.93,0.11
		l1.13-0.36l0.04,0l4.01,0.36h22.08l1.9,0.22l3.79-0.44l0.87,0.07l5.1-0.51l2.04,0.36l1.18-0.14l0.2,0.36l3.43-0.36l1.17,0.36h3.72
		l2.33-0.22h10.06l1.97,0.37h2.84l1.6-0.22l1.02,0.07l3.72,0.88l2.62-0.95h3.13l5.68-0.44l0.95,0.29l1.31-0.15l0.15-0.29l0.15-2.04
		v-6.19l0.95-4.3l-0.15-0.36L207.24,405.07z M68.34,389.62l-0.07,1.17l-0.22,1.24l-1.09,3.57l-0.58,0.95l-0.58,0.29l-1.46,1.68
		l-2.4,1.46l-1.02,0.07l-1.02,0.66l-2.48,0.66l-1.6,0.22l-1.31-0.22l-1.17,0.51l-3.5-0.36l-1.53-0.58l-2.11,0.15l-1.24-0.95
		l-0.8,0.22l-1.6-1.46l-0.88-0.15l-0.87-1.31l-0.58-0.51l-1.6-2.55l-0.51-1.68l-0.66-1.46l0.58-1.24l0.87-0.73l0.95-0.15h2.33
		l0.87,0.87l2.04,3.64l1.38,0.73l3.5,1.82l0.95,0.15h3.72l1.68-0.29l2.11-0.58l1.82-0.87l0.95-0.95l0.22-0.95l0.66-1.38l0.29-0.22
		v-2.11L61.49,387l-2.26-1.6l-3.06-1.09l-1.09-0.66l-2.04-0.8l-1.17,0.07l-2.41-0.95l-3.72-1.68l-1.53-0.44l-0.66-0.8l-1.75-1.17
		l-1.09-1.09l-0.29-0.58l-0.95-1.02l-0.66-1.46v-1.31l-0.51-2.11l0.51-1.46l-0.15-1.53l0.29-1.38l0.8-1.31l1.09-0.58l1.75-2.26
		l0.8-0.36l1.02-0.95l2.04-0.58l0.87,0.07l1.38-0.44l2.62-0.44l1.17-0.51l2.55,0.44l0.73-0.15l3.79,1.24l2.11,0.8l1.31,1.24
		l0.58,0.29l1.31,1.68l0.36,0.8l0.95,2.33l0.58,2.33l-0.29,1.09l-0.29,0.44l-1.38,0.37h-1.17l-1.02-0.22l-1.31-0.73l-0.51-1.09
		l-0.8-2.04l-1.75-1.97l-2.48-0.73l-1.31,0.15l-2.7-0.58l-0.22-0.29l-3.13,0.73l-0.73,0.51l-0.87,0.29l-1.02,1.24l-1.02,1.53
		l-0.29,2.11l-0.15,0.29l0.51,1.31l1.02,1.53l0.58,0.66l3.72,1.97l1.68,0.29l2.92,0.95l3.57,1.46l1.17,0.66l2.4,0.58l1.46,1.02
		l0.8,0.15l2.04,1.9l1.53,2.77l-0.07,0.95l0.66,1.38V389.62z M110.46,373.37l-3.64,0.51l-0.73,0.36l-1.75-0.58l-3.21,0.66
		l-1.82-0.22l-1.17,0.15l-2.33-1.31l-0.66,0.95l0.8,2.7v1.9l-0.22,1.02v3.28l-0.22,0.58l0.51,2.04l-0.44,3.13v0.95l0.87,4.01
		l0.29,0.51l0.8,0.73l1.02,1.38l1.09,0.07l1.09,0.51l2.92-0.22l1.46,0.22l1.53-0.29l1.46-0.66l1.68,0.22l0.73,2.19l-0.51,1.31
		l-0.15,0.73l-1.68,0.73l-1.38,0.66l-1.38-0.37l-2.26,0.58l-3.28-0.29l-2.92-0.51l-2.55-0.95l-1.02-0.87l-0.8-1.31l-1.24-1.17
		l-1.17-3.43v-10.2l0.22-0.88l-0.44-1.82l0.36-0.73l-0.51-1.46l0.58-1.17l-0.15-2.19l0.8-0.8l-0.66-0.87l-1.46,0.66l-1.9,0.22
		l-1.82-0.22l-1.17,0.22l-0.73-0.07l-3.43-0.22l-0.44-1.02l-0.22-1.6l0.22-1.46l0.87-0.44l1.53,0.15h3.35l0.95-0.15h2.84l1.31,0.73
		l0.8-0.73l-0.87-1.24l-0.22-2.33v-2.11l0.29-1.68l-0.36-2.04l0.51-1.68l-0.29-1.6v-1.82l2.33-0.29h2.33l0.87,0.73l0.15,1.82
		l-0.36,1.89l0.22,1.75v6.41l-0.87,1.75l0.66,0.88l1.17-0.36l4.08-0.36l1.38,0.22l0.8-0.22l2.48,0.51l1.53-0.51l2.11,0.29h0.87
		l1.02,1.02l0.22,0.58l0.15,1.82L110.46,373.37z M157.54,399.97l-0.73,0.8l-0.95,0.36l-0.07,0.22l-1.68,0.15l-0.95-0.07l-2.04,0.15
		l-1.31-0.22l-1.38-0.8l-0.66-1.24l-0.36-1.46l-0.51-0.51l-1.31,1.31h-0.66l-1.24,1.17l-2.11,0.58l-1.17,0.73l-0.87-0.07l-1.6,0.66
		h-2.04l-3.72-0.36l-2.7-1.02l-0.8-0.58l-0.44-0.66l-1.53-0.8l-1.31-2.11l-0.8-2.77v-3.13l2.48-3.5l0.22-0.51l0.87-0.95l1.6-0.44
		l3.35-1.02l0.73-0.36h2.92l1.02,0.15h1.31l0.87,0.22l0.87-0.07h2.04l1.6,0.44l2.04,0.87l0.36-0.44l-0.29-0.66l-0.29-1.53l0.22-3.28
		l-0.51-1.09v-1.24l-0.95-1.53l-1.53-1.02l-1.31-1.09l-3.35-0.22l-2.84,0.29l-2.4,0.73l-1.38,1.53l-0.73,2.48l-0.66,0.87l-1.46,0.95
		h-1.24l-0.73-0.15l-1.24-0.51l-0.29-1.02v-1.6l0.51-1.02l0.15-0.8l1.46-2.48l2.04-1.82l1.09-0.58l1.9-0.44l0.29-0.51l3.28-0.29
		h3.28l2.41-0.36l1.89,0.51l1.53,0.66l1.38,0.36l1.53,1.31l1.38,1.46l0.87,1.53l0.29,0.8l0.8,2.11l-0.29,1.97l0.58,1.82l0.29,1.6
		l-0.29,1.97l0.36,2.41l-0.51,1.89v4.3l0.15,1.89l0.51,1.53l1.53,0.51l2.04-0.44l0.95,0.29l0.36,1.46L157.54,399.97z M199.74,373.8
		l-0.87,0.87h-3.13l-1.53-0.15l-2.33,0.22h-1.46l-1.02,0.51l-1.24,0.15l-1.24,1.38l-2.26,1.89l-1.09,0.07l-0.44,0.8l0.95,0.73
		l0.15,1.31l0.36,1.24l-0.66,3.64l0.44,2.26l-0.36,1.6l0.44,3.79l-0.44,1.38l0.66,1.02l2.11-0.73l1.6,0.44l2.11-0.29l1.6,0.15
		l1.97-0.36l1.9,0.15l1.75,0.73l0.29,1.75l0.29,0.29l-0.51,1.82l-3.43,0.51h-3.28l-2.26-0.44l-1.82,0.36h-2.77l-2.92-0.07h-3.13
		l-1.9-0.29l-1.6,0.36h-2.77l-1.17-0.36l-0.58-1.02l0.07-1.02v-1.82l1.24-0.66h1.46l0.95-0.22h2.4l1.46,0.36l0.73,0.51l1.31-0.58
		l-0.95-0.66l-0.36-2.26v-1.6l-0.29-2.62v-2.7l0.36-2.92l-0.44-2.26l0.29-1.82l-0.29-0.29l0.58-1.89l0.15-1.9l0.73-1.46l-1.09-0.22
		l-1.24,0.44l-2.62,0.36l-1.75-0.29l-2.33-0.73l-0.51-1.75l0.66-1.31l1.82-1.02h1.75l0.58-0.29l3.72,0.36h2.33l2.19,0.58l0.36,1.31
		l-0.07,0.44v2.84l-0.36,1.82l1.17-1.17l0.44-1.38l0.66-0.44l1.02-1.68l1.24-1.02l1.02-0.58l0.58-0.8l3.5-0.66l0.8,0.15l2.7-0.22
		l2.77,0.8l0.87,0.73V373.8z"/>
	<polygon points="280.93,370.16 279.98,368.19 278.89,366.95 276.04,365.57 275.46,365.71 272.18,364.84 270.87,364.69 
		268.9,365.13 267.74,364.84 265.33,364.84 264.16,364.4 263.65,364.99 264.09,365.71 264.38,366.52 264.6,367.9 264.6,368.78 
		264.31,370.74 264.67,372.49 264.38,373.08 264.6,374.75 264.31,375.55 264.53,378.69 263.87,380.14 264.46,381.09 265.11,380.8 
		267.3,380.65 270.5,380.65 271.96,380.22 275.02,380 276.7,379.63 279.32,378.03 280.78,375.99 280.63,375.55 281.36,373.95 
		281.07,373.37 281.65,371.91 	"/>
	<polygon points="323.63,378.98 323.34,377.16 321.67,375.19 320.13,374.31 318.09,373.95 316.27,373.37 315.25,373.22 
		313.72,373.22 312.05,373.59 311.1,374.02 309.28,374.68 308.04,375.99 306.36,378.98 305.85,380.51 306,382.84 305.56,384.95 
		305.92,386.63 306.07,389.04 306.36,390.42 306.29,390.86 307.53,392.97 307.75,393.63 309.2,394.87 311.39,396.25 312.34,396.61 
		314.23,396.76 314.23,396.91 317.07,396.4 318.68,396.4 319.19,395.96 320.65,395.38 321.37,395.3 322.83,393.41 323.63,391.8 
		324.43,389.76 324.07,388.96 324.43,388.23 325.16,384.52 324.07,379.71 	"/>
	<polygon points="411.96,379.49 410.8,377.3 409.49,375.55 407.08,373.73 403.44,373.15 402.2,373.15 401.32,372.93 399.65,373.44 
		396,375.26 395.2,376.5 394.33,377.52 394.11,378.4 393.31,380.14 392.65,381.02 392.43,382.18 393.16,382.48 394.84,381.82 
		396.95,381.97 398.92,381.82 401.54,381.53 403.95,381.75 406.42,382.04 408.32,381.82 409.63,381.46 412.77,382.48 413.28,381.82 
		412.91,380.95 	"/>
	<path d="M470.41,405.58l-0.8-0.51v-1.68l-0.58-2.4l0.51-2.7v-5.32l0.15-0.58l-0.58-2.33l0.44-3.28v-3.06l-0.29-2.4l0.95-5.32
		l-0.51-1.53l-0.29-2.26l0.44-2.26l-0.44-1.68l0.22-1.68l-0.44-5.83l0.36-0.44l0.07-0.29l-0.73-3.13l0.58-3.21v-0.95l0.36-2.33
		l-0.51-2.99l0.22-2.19l-0.07-0.95l0.22-2.4l-0.51-2.26l0.36-2.4l-1.46-0.88h-3.42l-4.3-0.29l-2.48,0.44h-4.74l-3.13-0.29
		l-2.26,0.22h-2.11l-3.86-0.36l-2.48,0.58l-0.95-0.36l-1.75,0.22h0.07l-1.6,0.15l-1.75-0.51l-1.53,0.22l-3.86-0.87l-1.53,0.73
		l-1.68-0.22l-0.3,0.29h-7.93l-2.92,0.44l-2.04-0.44h-8.38l-3.42-0.29l-1.09,0.07l-1.97,0.44h-4.59l-2.26-0.51l-2.92,0.44
		l-2.19-0.51l-2.55,0.22l-1.09-0.07l-0.5,0.48l-1.54-0.48h-8.75l-1.17,0.36h-14.58L353,336.2l-1.09,0.44h-3.35l-2.92-0.36
		l-1.46,0.44l-2.92-0.58l-1.97,0.58l-2.41-0.29l-0.21,0.28l-0.16-0.13h-8.02l-2.48,0.51l-1.89-0.29h-7l-2.84,0.36l-4.23-0.51
		l-2.4,0.8l-1.46-0.37l-2.92,0.44l-1.53-0.51l-2.41,0.36l-3.28-0.8l-0.73,0.73l-1.56-0.19l-0.12-0.17l-3.43-0.29h-6.27l-1.53,0.29
		h-14.65l-1.02-0.22l-2.26,0.73l-2.99-0.37l-1.46,0.22l-3.28-0.58l-0.66,0.58l-2.11-0.51l-3.72,0.36l-1.09-0.07l-1.82,1.82
		l0.22,1.24l0.29,3.57l-0.29,2.55v3.21l0.66,6.78v4.37l-0.44,2.26l0.22,2.26v2.04l-0.36,2.33l0.44,1.31v3.86l0.58,2.11l-0.22,3.57
		l0.29,1.97l-0.58,1.53v5.39l0.29,0.51l-0.29,3.5l0.58,2.84l-0.29,2.19l0.36,1.97l0.51,1.82l-0.95,4.01l0.36,1.02v11.81l2.04,1.24
		l2.04-0.29h3.72l4.08,0.51l0.66-0.44h13.48l3.06-0.44l2.77,0.58l2.48-0.58h2.04l2.41-0.36h3.57l1.49-0.12l0.19,0.27l0.29,0.58
		l0.29,0.15h7.58l2.33,0.22l1.6-0.44h6.19l4.52,0.29l4.15-0.51h8.6l2.48-0.44l2.19,0.15l3.5-0.29l0.72,0.14l0.67,0.67l1.82-0.36
		h3.86l3.57,0.36l0.58-0.22h-0.07l0.66-0.22h13.85l3.42-0.44l1.31,0.29h4.45l1.53-0.15l2.26-0.51l1.68,0.29l2.99-0.29h0.37
		l0.73,0.66l2.77-0.36l0.66,0.29h2.92l1.89,0.15l3.43-0.58l0.29,0.37h7.87l2.7,0.22l5.03-0.44l1.53,0.36h5.39l3.06-0.66l2.26,0.36
		h1.68l1.21-0.1l0.18,0.32l3.43-0.36l1.17,0.36h3.72l2.33-0.22h10.06l1.97,0.37h2.84l1.6-0.22l1.02,0.07l3.72,0.88l2.62-0.95h3.13
		l5.68-0.44l0.95,0.29l1.31-0.15l0.15-0.29l0.15-2.04v-6.19l0.95-4.3L470.41,405.58z M287.41,375.04l-0.22,0.66l0.15,0.95
		l-0.66,1.46l-0.8,1.24l-1.53,2.33l-1.24,0.58l-0.8,0.88l-2.33,1.17l-1.38,0.22l-1.09,0.58l-2.48,0.44l-1.31-0.15l-1.17,0.58
		l-1.6-0.29l-2.33,0.15l-0.07-0.15l-3.06-0.22l-0.8,0.07l-0.51,0.66l0.58,2.33l-0.58,0.51l0.37,2.99l-0.15,1.17l0.29,2.33
		l-0.22,2.33v1.46l-0.22,1.38l-2.55,0.29l-1.97-0.51l-0.95-0.8l-0.22-1.38l0.22-1.97l-0.36-1.46l0.44-1.97l-0.36-0.95l-0.22-2.77
		l0.44-1.46l0.07-0.73l-0.44-1.31l0.22-3.28l-0.44-1.17l0.58-1.6l-0.15-1.6l-0.36-1.53l0.29-2.19l0.15-2.11l-0.22-1.17l0.29-1.68
		l-0.15-2.33v-2.77l0.29-2.19l0.36-1.17l2.84-1.24l1.68,0.22l1.09-0.07l1.89,0.22l1.53-0.29h6.19l1.68,0.51l1.02,0.51h1.68
		l1.38,0.66l1.02,0.8l1.17,0.51l1.68,1.02l1.02,0.88l1.68,3.28l0.66,2.48l0.22,2.55L287.41,375.04z M330.63,385.25l-0.58,5.98
		l-0.44,0.95l-1.24,3.06l-1.38,1.68l-2.26,2.11l-1.46,0.73l-2.26,1.02l-2.77,0.29l-1.17,0.44h-2.19l-2.48,0.29l-2.62-0.8l-0.73-0.66
		l-1.6-0.36l-0.66-0.51l-1.46-0.8l-0.22-0.58l-2.33-1.9l-0.66-1.17l-0.73-0.73l-0.66-2.11l-0.58-2.99l-0.73-1.31l0.15-2.26
		l0.44-2.62l-0.36-1.75l1.75-4.01l0.29-0.95l0.88-1.9l0.73-0.87l1.46-1.97l1.46-0.58l0.73-0.51l1.31-0.29l1.53-0.95l0.36-0.51h1.97
		l-0.15,0.07l2.55-0.36h0.88l1.24,0.15h1.97l2.04,0.58l1.31,0.51l1.82,1.17l1.46,0.51v0.22l1.75,1.68l0.88,1.6l1.09,1.17l1.17,2.04
		l0.22,1.75v1.68l0.44,1.82L330.63,385.25z M376.4,373.22l0.07,0.8l-0.8,1.68l-0.22,2.62l0.36,1.89l-1.09,2.04l0.22,0.8l-0.8,1.97
		v1.09l-0.73,2.84v1.6l-0.44,1.38v0.95l-0.22,3.06l-0.51,1.82l-0.87,1.82l-1.02,0.95l-3.13,0.51l-1.24-0.22l-1.38-0.87l-1.24-2.41
		l-0.51-3.28l-0.51-0.8l-0.73-2.77l-0.36-0.66l-0.8-3.06l0.22-1.09l-1.09-2.26l0.37-0.22l-0.88-2.19l-0.44,0.29l0.22,0.8l-0.36,1.82
		l-0.51,1.09l-1.75,5.83l0.29,0.73l-1.02,1.53l-0.8,2.62v1.53l-1.02,1.46l-1.31,1.53l-0.51,0.29l-2.4,0.15l-2.33-0.22l-0.44-0.95
		l-0.88-2.26l-0.29-1.75l0.15-0.73l-0.66-2.33l0.07-0.87l-0.29-1.46l-0.66-2.11l-0.22-1.75v-2.04l-0.66-1.46v-0.58l-0.44-2.11
		l-0.73-3.13v-1.24l-0.22-1.97l-0.73-0.44v-2.26l0.15-0.66l0.87-1.31l1.31-0.15l0.8-0.07l2.26,1.68l0.07,0.88l0.29,1.38v2.04
		l0.51,1.6l0.51,2.26v2.04l0.37,1.53l-0.07,0.8l0.66,3.06l0.51,1.09v2.11l0.36-0.15v2.92l0.15,1.02l0.8,0.22l0.95-2.41l0.58-0.36
		v-3.42l1.17-1.82l0.22-1.17l0.51-1.09l0.73-3.5l0.51-1.82l0.44-0.87l0.58-0.73l0.87-0.73l2.26,0.29l2.19,0.8l0.73,2.19l1.24,1.97
		l0.29,1.89l0.95,2.48l0.44,2.11l0.8,1.6v1.53l0.87,1.82v1.09l0.44,1.75l0.51-0.8l0.22-0.88l0.29-2.99l0.58-0.58v-1.97l-0.22-1.31
		l0.58-2.04l0.66-1.24l-0.22-2.77l0.73-1.75v-1.97l0.51-0.51l-0.15-2.19l0.29-1.46l0.44-0.44l0.15-2.04l1.31-0.73l1.24-0.36
		l1.24,0.15l1.02,1.38l0.29,1.02L376.4,373.22z M417.58,384.74l-1.53,0.95h-1.31l-0.88,0.29l-1.68-0.22l-1.09,0.22l-2.19-0.15
		l-0.8,0.29l-1.75-0.51l-3.13,0.44l-1.6-0.29l-1.31,0.58l-2.04-0.29l-0.66,0.37l-2.92-0.37l-0.95-0.44l-1.31-0.29l-0.44,0.66
		l1.46,2.99l0.22,0.66l0.15,1.17l0.66,1.38l0.51,0.15l0.95,2.04l1.53,1.02l0.44,0.44l5.25,1.17h1.97l2.41-0.8l0.29-0.66l2.19-0.58
		l2.19-2.84l0.44-0.15l1.31-1.24h1.53l0.51,0.22l1.17,0.22l0.44,1.31l-0.29,1.17l-1.17,2.7l-1.6,1.02l-1.09,1.17l-2.4,1.6
		l-1.38,0.51h-0.66l-1.24,0.58l-2.99,0.66h-1.46l-3.21-0.58h-1.46l-1.17-0.22l-1.68-0.8l-1.75-0.8l-1.89-0.95l-0.95-1.75l-1.38-1.17
		l-0.29-0.95l-0.95-1.82l-0.66-0.29l-0.22-2.48l0.15-1.46l-0.73-3.79l0.36-1.6v-2.99l0.58-1.38l0.07-0.8l1.17-1.75l0.88-1.9
		l0.66-0.95l0.36-0.07l1.02-1.68l1.75-0.95l3.13-1.46l1.46-0.36l0.73-0.44l2.04-0.44l1.89,0.29l0.73,0.36l1.02-0.36l1.53,0.44
		l0.66,0.51l1.89,0.36l1.38,0.66l0.95,0.29l1.02,0.73l2.99,2.92l1.02,1.68l0.44,1.68l0.44,0.95l0.51,2.19l-0.15,0.51l0.44,2.48
		L417.58,384.74z M462.1,373.8l-0.88,0.87h-3.13l-1.53-0.15l-2.33,0.22h-1.46l-1.02,0.51l-1.24,0.15l-1.24,1.38l-2.26,1.89
		l-1.09,0.07l-0.44,0.8l0.95,0.73l0.15,1.31l0.36,1.24l-0.66,3.64l0.44,2.26l-0.36,1.6l0.44,3.79l-0.44,1.38l0.66,1.02l2.11-0.73
		l1.6,0.44l2.11-0.29l1.6,0.15l1.97-0.36l1.89,0.15l1.75,0.73l0.29,1.75l0.29,0.29l-0.51,1.82l-3.42,0.51h-3.28l-2.26-0.44
		l-1.82,0.36h-2.77l-2.92-0.07h-3.13l-1.89-0.29l-1.6,0.36h-2.77l-1.17-0.36l-0.58-1.02l0.07-1.02v-1.82l1.24-0.66h1.46l0.95-0.22
		h2.41l1.46,0.36l0.73,0.51l1.31-0.58l-0.95-0.66l-0.37-2.26v-1.6l-0.29-2.62v-2.7l0.36-2.92l-0.44-2.26l0.29-1.82l-0.29-0.29
		l0.58-1.89l0.15-1.9l0.73-1.46l-1.09-0.22l-1.24,0.44l-2.62,0.36l-1.75-0.29l-2.33-0.73l-0.51-1.75l0.66-1.31l1.82-1.02h1.75
		l0.58-0.29l3.72,0.36h2.33l2.19,0.58l0.36,1.31l-0.07,0.44v2.84l-0.36,1.82l1.17-1.17l0.44-1.38l0.66-0.44l1.02-1.68l1.24-1.02
		l1.02-0.58l0.58-0.8l3.5-0.66l0.8,0.15l2.7-0.22l2.77,0.8l0.88,0.73V373.8z"/>
</g>
<ellipse cx="223.5" cy="164" rx="9.5" ry="23"/>
<ellipse cx="270.5" cy="164" rx="9.5" ry="23"/>
<path d="M203.77,196h93.02c-50.21,75-95.79,0-95.79,0"/>
</svg>
